<svg width="24" height="24" viewBox="0 0 24 24" fill="none" xmlns="http://www.w3.org/2000/svg">
<mask id="mask0_0_750" style="mask-type:alpha" maskUnits="userSpaceOnUse" x="0" y="0" width="24" height="24">
<rect width="24" height="24" fill="#004FEC"/>
</mask>
<g mask="url(#mask0_0_750)">
<path d="M13.1326 12.0035L16.5726 8.57147C16.7232 8.42083 16.8079 8.21651 16.8079 8.00347C16.8079 7.79043 16.7232 7.58611 16.5726 7.43547C16.4219 7.28483 16.2176 7.2002 16.0046 7.2002C15.7915 7.2002 15.5872 7.28483 15.4366 7.43547L12.0046 10.8755L8.57259 7.43547C8.42195 7.28483 8.21763 7.2002 8.00459 7.2002C7.79155 7.2002 7.58723 7.28483 7.43659 7.43547C7.28595 7.58611 7.20132 7.79043 7.20132 8.00347C7.20132 8.21651 7.28595 8.42083 7.43659 8.57147L10.8766 12.0035L7.43659 15.4355C7.36161 15.5098 7.30209 15.5983 7.26148 15.6958C7.22086 15.7933 7.19995 15.8979 7.19995 16.0035C7.19995 16.1091 7.22086 16.2136 7.26148 16.3111C7.30209 16.4086 7.36161 16.4971 7.43659 16.5715C7.51096 16.6464 7.59944 16.706 7.69693 16.7466C7.79442 16.7872 7.89898 16.8081 8.00459 16.8081C8.1102 16.8081 8.21476 16.7872 8.31225 16.7466C8.40974 16.706 8.49822 16.6464 8.57259 16.5715L12.0046 13.1315L15.4366 16.5715C15.511 16.6464 15.5994 16.706 15.6969 16.7466C15.7944 16.7872 15.899 16.8081 16.0046 16.8081C16.1102 16.8081 16.2148 16.7872 16.3123 16.7466C16.4097 16.706 16.4982 16.6464 16.5726 16.5715C16.6476 16.4971 16.7071 16.4086 16.7477 16.3111C16.7883 16.2136 16.8092 16.1091 16.8092 16.0035C16.8092 15.8979 16.7883 15.7933 16.7477 15.6958C16.7071 15.5983 16.6476 15.5098 16.5726 15.4355L13.1326 12.0035Z" fill="#686B6E"/>
</g>
</svg>
