<svg width="12" height="12" viewBox="0 0 12 12" fill="none" xmlns="http://www.w3.org/2000/svg">
<path d="M5.72122 0.5347C6.1791 -0.326449 7.47144 -0.0985742 7.60717 0.867245L7.93945 3.23152C8.00015 3.66345 8.33208 4.00717 8.76162 4.08291L11.1129 4.4975C12.0734 4.66686 12.256 5.96636 11.3794 6.39391L9.2335 7.44052C8.84147 7.63173 8.61715 8.05362 8.67785 8.48555L9.01013 10.8498C9.14587 11.8156 7.96641 12.3909 7.2889 11.6893L5.63039 9.9719C5.3274 9.65814 4.85684 9.57517 4.46481 9.76637L2.31893 10.813C1.44232 11.2405 0.530741 10.2966 0.988622 9.43542L2.10949 7.32737C2.31426 6.94225 2.24776 6.46908 1.94477 6.15532L0.286265 4.43789C-0.391243 3.73631 0.224832 2.57764 1.18533 2.747L3.53657 3.16159C3.96611 3.23733 4.39558 3.02787 4.60035 2.64275L5.72122 0.5347Z" fill="#14AA37"/>
</svg>
