<svg width="24" height="24" viewBox="0 0 24 24" fill="none" xmlns="http://www.w3.org/2000/svg">
<mask id="mask0_0_1194" style="mask-type:alpha" maskUnits="userSpaceOnUse" x="0" y="0" width="24" height="24">
<rect width="24" height="24" fill="#004FEC"/>
</mask>
<g mask="url(#mask0_0_1194)">
<path d="M12 17.6004C15.0928 17.6004 17.6 15.0932 17.6 12.0004C17.6 8.9076 15.0928 6.40039 12 6.40039C8.9072 6.40039 6.39999 8.9076 6.39999 12.0004C6.39999 15.0932 8.9072 17.6004 12 17.6004Z" fill="#686B6E"/>
<path d="M12 20.7682C11.56 20.7682 11.2 20.4402 11.2 20.0002V19.9362C11.2 19.4962 11.56 19.1362 12 19.1362C12.44 19.1362 12.8 19.4962 12.8 19.9362C12.8 20.3762 12.44 20.7682 12 20.7682ZM17.712 18.5122C17.504 18.5122 17.304 18.4322 17.144 18.2802L17.04 18.1762C16.728 17.8642 16.728 17.3602 17.04 17.0482C17.352 16.7362 17.856 16.7362 18.168 17.0482L18.272 17.1522C18.584 17.4642 18.584 17.9682 18.272 18.2802C18.12 18.4322 17.92 18.5122 17.712 18.5122ZM6.28798 18.5122C6.07998 18.5122 5.87998 18.4322 5.71998 18.2802C5.40798 17.9682 5.40798 17.4642 5.71998 17.1522L5.82398 17.0482C6.13598 16.7362 6.63998 16.7362 6.95198 17.0482C7.26398 17.3602 7.26398 17.8642 6.95198 18.1762L6.84798 18.2802C6.69598 18.4322 6.48798 18.5122 6.28798 18.5122ZM20 12.8002H19.936C19.496 12.8002 19.136 12.4402 19.136 12.0002C19.136 11.5602 19.496 11.2002 19.936 11.2002C20.376 11.2002 20.768 11.5602 20.768 12.0002C20.768 12.4402 20.44 12.8002 20 12.8002ZM4.06398 12.8002H3.99998C3.55998 12.8002 3.19998 12.4402 3.19998 12.0002C3.19998 11.5602 3.55998 11.2002 3.99998 11.2002C4.43998 11.2002 4.83198 11.5602 4.83198 12.0002C4.83198 12.4402 4.50398 12.8002 4.06398 12.8002ZM17.608 7.1922C17.4 7.1922 17.2 7.1122 17.04 6.9602C16.728 6.6482 16.728 6.1442 17.04 5.8322L17.144 5.7282C17.456 5.4162 17.96 5.4162 18.272 5.7282C18.584 6.0402 18.584 6.5442 18.272 6.8562L18.168 6.9602C18.016 7.1122 17.816 7.1922 17.608 7.1922ZM6.39198 7.1922C6.18398 7.1922 5.98398 7.1122 5.82398 6.9602L5.71998 6.8482C5.40798 6.5362 5.40798 6.0322 5.71998 5.7202C6.03198 5.4082 6.53598 5.4082 6.84798 5.7202L6.95198 5.8242C7.26398 6.1362 7.26398 6.6402 6.95198 6.9522C6.79998 7.1122 6.59198 7.1922 6.39198 7.1922ZM12 4.8322C11.56 4.8322 11.2 4.5042 11.2 4.0642V4.0002C11.2 3.5602 11.56 3.2002 12 3.2002C12.44 3.2002 12.8 3.5602 12.8 4.0002C12.8 4.4402 12.44 4.8322 12 4.8322Z" fill="#686B6E"/>
</g>
</svg>
