<svg width="36" height="36" viewBox="0 0 36 36" fill="none" xmlns="http://www.w3.org/2000/svg">
<mask id="mask0_0_870" style="mask-type:alpha" maskUnits="userSpaceOnUse" x="0" y="0" width="36" height="36">
<rect width="36" height="36" fill="#004FEC"/>
</mask>
<g mask="url(#mask0_0_870)">
<path d="M19.699 18.0047L24.859 12.8567C25.085 12.6308 25.2119 12.3243 25.2119 12.0047C25.2119 11.6852 25.085 11.3787 24.859 11.1527C24.633 10.9268 24.3266 10.7998 24.007 10.7998C23.6874 10.7998 23.381 10.9268 23.155 11.1527L18.007 16.3127L12.859 11.1527C12.633 10.9268 12.3266 10.7998 12.007 10.7998C11.6874 10.7998 11.381 10.9268 11.155 11.1527C10.929 11.3787 10.8021 11.6852 10.8021 12.0047C10.8021 12.3243 10.929 12.6308 11.155 12.8567L16.315 18.0047L11.155 23.1527C11.0425 23.2643 10.9533 23.397 10.8923 23.5432C10.8314 23.6895 10.8 23.8463 10.8 24.0047C10.8 24.1631 10.8314 24.32 10.8923 24.4662C10.9533 24.6124 11.0425 24.7452 11.155 24.8567C11.2666 24.9692 11.3993 25.0585 11.5455 25.1194C11.6917 25.1803 11.8486 25.2117 12.007 25.2117C12.1654 25.2117 12.3223 25.1803 12.4685 25.1194C12.6147 25.0585 12.7475 24.9692 12.859 24.8567L18.007 19.6967L23.155 24.8567C23.2666 24.9692 23.3993 25.0585 23.5455 25.1194C23.6917 25.1803 23.8486 25.2117 24.007 25.2117C24.1654 25.2117 24.3223 25.1803 24.4685 25.1194C24.6147 25.0585 24.7475 24.9692 24.859 24.8567C24.9715 24.7452 25.0608 24.6124 25.1217 24.4662C25.1826 24.32 25.214 24.1631 25.214 24.0047C25.214 23.8463 25.1826 23.6895 25.1217 23.5432C25.0608 23.397 24.9715 23.2643 24.859 23.1527L19.699 18.0047Z" fill="#1A1D1F"/>
</g>
</svg>
