<svg width="28" height="28" viewBox="0 0 28 28" fill="none" xmlns="http://www.w3.org/2000/svg">
<mask id="mask0_6773_16939" style="mask-type:alpha" maskUnits="userSpaceOnUse" x="0" y="0" width="28" height="28">
<rect width="28" height="28" fill="#004FEC"/>
</mask>
<g mask="url(#mask0_6773_16939)">
<path d="M22.9641 14.2148C22.9641 13.5804 22.9126 12.9425 22.8029 12.3184H13.9997V15.9123H19.0409C18.8317 17.0715 18.1595 18.0968 17.1753 18.7484V21.0804H20.1828C21.949 19.4549 22.9641 17.0543 22.9641 14.2148Z" fill="#4285F4"/>
<path d="M13.9997 23.3334C16.5168 23.3334 18.6396 22.5069 20.1863 21.0803L17.1787 18.7484C16.3419 19.3176 15.2617 19.64 14.0031 19.64C11.5683 19.64 9.50379 17.9973 8.76304 15.7888H5.65947V18.1928C7.24384 21.3444 10.4709 23.3334 13.9997 23.3334Z" fill="#34A853"/>
<path d="M8.75962 15.7889C8.36867 14.6298 8.36867 13.3746 8.75962 12.2155V9.81152H5.65947C4.33574 12.4487 4.33574 15.5557 5.65947 18.1929L8.75962 15.7889Z" fill="#FBBC04"/>
<path d="M13.9997 8.3608C15.3303 8.34022 16.6163 8.84091 17.5799 9.75998L20.2446 7.09537C18.5573 5.511 16.3179 4.63994 13.9997 4.66738C10.4709 4.66738 7.24384 6.65641 5.65947 9.81142L8.75961 12.2154C9.49693 10.0035 11.5648 8.3608 13.9997 8.3608Z" fill="#EA4335"/>
</g>
</svg>
