<svg width="20" height="20" viewBox="0 0 20 20" fill="none" xmlns="http://www.w3.org/2000/svg">
<mask id="mask0_0_372" style="mask-type:alpha" maskUnits="userSpaceOnUse" x="0" y="0" width="20" height="20">
<rect width="20" height="20" fill="#004FEC"/>
</mask>
<g mask="url(#mask0_0_372)">
<path d="M14.7713 12.5698C14.6555 12.5698 14.5398 12.5272 14.4484 12.4358L10.4766 8.464C10.1842 8.1716 9.70905 8.1716 9.41665 8.464L5.44484 12.4358C5.26818 12.6125 4.97578 12.6125 4.79912 12.4358C4.62246 12.2591 4.62246 11.9667 4.79912 11.7901L8.77092 7.81828C9.41665 7.17255 10.4705 7.17255 11.1223 7.81828L15.0941 11.7901C15.2708 11.9667 15.2708 12.2591 15.0941 12.4358C15.0028 12.5211 14.887 12.5698 14.7713 12.5698Z" fill="#686B6E"/>
</g>
</svg>
