<svg width="24" height="24" viewBox="0 0 24 24" fill="none" xmlns="http://www.w3.org/2000/svg">
<mask id="mask0_0_1161" style="mask-type:alpha" maskUnits="userSpaceOnUse" x="0" y="0" width="24" height="24">
<rect width="24" height="24" fill="#004FEC"/>
</mask>
<g mask="url(#mask0_0_1161)">
<path d="M19.0589 6.3842C17.7709 6.2562 16.4829 6.1602 15.1869 6.0882V6.08019L15.0109 5.0402C14.8909 4.3042 14.7149 3.2002 12.8429 3.2002H10.7469C8.88286 3.2002 8.70686 4.2562 8.57886 5.0322L8.41086 6.0562C7.66686 6.1042 6.92286 6.1522 6.17886 6.2242L4.54686 6.3842C4.21086 6.4162 3.97086 6.7122 4.00286 7.0402C4.03486 7.3682 4.32286 7.60819 4.65886 7.57619L6.29086 7.41619C10.4829 7.0002 14.7069 7.1602 18.9469 7.5842C18.9709 7.5842 18.9869 7.5842 19.0109 7.5842C19.3149 7.5842 19.5789 7.3522 19.6109 7.0402C19.6349 6.7122 19.3949 6.4162 19.0589 6.3842Z" fill="#EF233C"/>
<path d="M17.5869 8.71239C17.3948 8.51239 17.1308 8.40039 16.8589 8.40039H6.74685C6.47485 8.40039 6.20285 8.51239 6.01885 8.71239C5.83485 8.91239 5.73085 9.18439 5.74685 9.46439L6.24285 17.6724C6.33085 18.8884 6.44285 20.4084 9.23485 20.4084H14.3709C17.1629 20.4084 17.2749 18.8964 17.3629 17.6724L17.8589 9.47239C17.8749 9.18439 17.7709 8.91239 17.5869 8.71239ZM13.1309 16.4004H10.4669C10.1389 16.4004 9.86685 16.1284 9.86685 15.8004C9.86685 15.4724 10.1389 15.2004 10.4669 15.2004H13.1309C13.4589 15.2004 13.7309 15.4724 13.7309 15.8004C13.7309 16.1284 13.4589 16.4004 13.1309 16.4004ZM13.8029 13.2004H9.80285C9.47485 13.2004 9.20285 12.9284 9.20285 12.6004C9.20285 12.2724 9.47485 12.0004 9.80285 12.0004H13.8029C14.1309 12.0004 14.4029 12.2724 14.4029 12.6004C14.4029 12.9284 14.1309 13.2004 13.8029 13.2004Z" fill="#EF233C"/>
</g>
</svg>
