<svg width="101" height="121" viewBox="0 0 101 121" fill="none" xmlns="http://www.w3.org/2000/svg">
<path fill-rule="evenodd" clip-rule="evenodd" d="M89.1817 107.126C117.094 77.6258 85.7556 78.932 69.712 50.7131C53.6684 22.4942 59.9414 -11.0845 31.0825 4.93647C2.22351 20.9575 -8.16535 56.821 7.87831 85.0399C23.922 113.259 61.2688 136.626 89.1817 107.126Z" fill="#E9EAEA"/>
<path d="M53.0001 74.0495C55.7008 74.0495 57.8901 71.8602 57.8901 69.1595C57.8901 66.4589 55.7008 64.2695 53.0001 64.2695C50.2994 64.2695 48.1101 66.4589 48.1101 69.1595C48.1101 71.8602 50.2994 74.0495 53.0001 74.0495Z" fill="#75111D"/>
<path d="M66.95 50.3198H39.05C26.75 50.3198 23 54.0698 23 66.3698V71.9498C23 84.2498 26.75 87.9998 39.05 87.9998H66.95C79.25 87.9998 83 84.2498 83 71.9498V66.3698C83 54.0698 79.25 50.3198 66.95 50.3198ZM53 78.2198C47.99 78.2198 43.94 74.1398 43.94 69.1598C43.94 64.1798 47.99 60.0998 53 60.0998C58.01 60.0998 62.06 64.1798 62.06 69.1598C62.06 74.1398 58.01 78.2198 53 78.2198Z" fill="#EF233C"/>
<path d="M38.3599 50.35V46.84C38.3599 38.05 40.8499 32.2 52.9999 32.2C65.1499 32.2 67.6399 38.05 67.6399 46.84V50.35C69.1699 50.38 70.5499 50.44 71.8399 50.62V46.84C71.8399 38.74 69.8899 28 52.9999 28C36.1099 28 34.1599 38.74 34.1599 46.84V50.59C35.4199 50.44 36.8299 50.35 38.3599 50.35Z" fill="#EF233C"/>
</svg>
