<svg width="22" height="22" viewBox="0 0 22 22" fill="none" xmlns="http://www.w3.org/2000/svg">
<mask id="mask0_0_642" style="mask-type:alpha" maskUnits="userSpaceOnUse" x="0" y="0" width="22" height="22">
<rect width="22" height="22" fill="#004FEC"/>
</mask>
<g mask="url(#mask0_0_642)">
<path fill-rule="evenodd" clip-rule="evenodd" d="M12.2439 6.21458C13.7032 4.75525 15.0966 4.79192 16.5192 6.21458C17.2526 6.94058 17.6046 7.64458 17.5972 8.37058C17.5972 9.07458 17.2452 9.77125 16.5192 10.4899L15.6392 11.3773C15.5806 11.4359 15.5072 11.4653 15.4266 11.4653C15.3972 11.4653 15.3679 11.4579 15.3386 11.4506C13.3952 10.8932 11.8406 9.33858 11.2832 7.39525C11.2539 7.29258 11.2832 7.17525 11.3566 7.10192L12.2439 6.21458ZM13.4026 11.7953C13.6006 11.9126 13.8059 12.0153 14.0186 12.1179C14.3048 12.242 14.3877 12.6215 14.1671 12.8421L10.0366 16.9726C9.94856 17.0679 9.76523 17.1559 9.63323 17.1779L6.81723 17.5739C6.72923 17.5886 6.64123 17.5959 6.55323 17.5959C6.15723 17.5959 5.79056 17.4566 5.52656 17.1999C5.21856 16.8846 5.07923 16.4153 5.15256 15.9166L5.54856 13.1079C5.57056 12.9833 5.65856 12.7999 5.75389 12.7046L9.87762 8.58087C10.1027 8.35579 10.4813 8.44148 10.6159 8.72993C10.7186 8.93526 10.8212 9.13326 10.9386 9.33126C11.0339 9.49259 11.1366 9.65393 11.2246 9.76393C11.3273 9.92143 11.4428 10.0598 11.5173 10.149C11.5226 10.1554 11.5277 10.1614 11.5326 10.1673C11.5429 10.1806 11.5527 10.1933 11.5619 10.2053C11.5981 10.2525 11.625 10.2876 11.6426 10.2993C11.8846 10.5926 12.1559 10.8566 12.3979 11.0619C12.4566 11.1206 12.5079 11.1646 12.5226 11.1719C12.6619 11.2893 12.8086 11.4066 12.9332 11.4873C13.0872 11.5973 13.2412 11.6999 13.4026 11.7953Z" fill="#1A1D1F"/>
</g>
</svg>
