<svg width="30" height="30" viewBox="0 0 30 30" fill="none" xmlns="http://www.w3.org/2000/svg">
<mask id="mask0_0_1321" style="mask-type:alpha" maskUnits="userSpaceOnUse" x="0" y="0" width="30" height="30">
<rect width="30" height="30" fill="#004FEC"/>
</mask>
<g mask="url(#mask0_0_1321)">
<path d="M12.8611 21.0439C12.7239 21.0434 12.5884 21.0148 12.4628 20.9597C12.3372 20.9047 12.2243 20.8244 12.1311 20.7239L7.27106 15.5539C7.08939 15.3602 6.99207 15.1024 7.00051 14.837C7.00895 14.5717 7.12245 14.3205 7.31606 14.1389C7.50967 13.9572 7.76752 13.8599 8.03288 13.8683C8.29825 13.8767 8.54939 13.9902 8.73106 14.1839L12.8511 18.5739L21.2611 9.37386C21.3464 9.26758 21.4526 9.17987 21.5731 9.11612C21.6935 9.05237 21.8258 9.01392 21.9617 9.00313C22.0975 8.99235 22.2342 9.00946 22.3632 9.05341C22.4922 9.09736 22.6109 9.16722 22.7119 9.2587C22.813 9.35019 22.8943 9.46136 22.9508 9.5854C23.0073 9.70944 23.0378 9.84372 23.0406 9.97999C23.0433 10.1163 23.0181 10.2517 22.9666 10.3779C22.9151 10.5041 22.8384 10.6184 22.7411 10.7139L13.6011 20.7139C13.5087 20.8162 13.3962 20.8984 13.2706 20.9552C13.1449 21.0119 13.0089 21.0421 12.8711 21.0439H12.8611Z" fill="#F3B22C"/>
</g>
</svg>
