<svg width="24" height="24" viewBox="0 0 24 24" fill="none" xmlns="http://www.w3.org/2000/svg">
<mask id="mask0_0_1100" style="mask-type:alpha" maskUnits="userSpaceOnUse" x="0" y="0" width="24" height="24">
<rect width="24" height="24" fill="#004FEC"/>
</mask>
<g mask="url(#mask0_0_1100)">
<path fill-rule="evenodd" clip-rule="evenodd" d="M9.112 11.456C8.784 11.456 8.512 11.728 8.512 12.056C8.512 12.384 8.776 12.656 9.112 12.648H13.488V19.312C13.488 19.696 13.176 20 12.8 20C8.088 20 4.8 16.712 4.8 12C4.8 7.288 8.088 4 12.8 4C13.184 4 13.488 4.304 13.496 4.688V11.4481H16.7706L15.5226 10.2001C15.2906 9.96813 15.2906 9.58413 15.5226 9.35213C15.7546 9.12013 16.1386 9.12013 16.3706 9.35213L18.6426 11.6321C18.8746 11.8641 18.8746 12.2401 18.6346 12.4641L16.3626 14.7441C16.2426 14.8641 16.0906 14.9201 15.9386 14.9201C15.7866 14.9201 15.6346 14.8641 15.5146 14.7441C15.2826 14.5121 15.2826 14.1281 15.5146 13.8961L16.7626 12.6481H13.4906V11.456H9.112Z" fill="white"/>
</g>
</svg>
