<svg width="27" height="27" viewBox="0 0 27 27" fill="none" xmlns="http://www.w3.org/2000/svg">
<mask id="mask0_0_1038" style="mask-type:alpha" maskUnits="userSpaceOnUse" x="0" y="0" width="27" height="27">
<rect width="27" height="27" fill="#004FEC"/>
</mask>
<g mask="url(#mask0_0_1038)">
<path d="M17.496 5.40039C15.867 5.40039 14.409 6.20129 13.5 7.42994C12.591 6.20129 11.133 5.40039 9.504 5.40039C6.741 5.40039 4.5 7.67567 4.5 10.4879C4.5 11.571 4.671 12.5721 4.968 13.5004C6.39 18.051 10.773 20.7722 12.942 21.5185C13.248 21.6277 13.752 21.6277 14.058 21.5185C16.227 20.7722 20.61 18.051 22.032 13.5004C22.329 12.5721 22.5 11.571 22.5 10.4879C22.5 7.67567 20.259 5.40039 17.496 5.40039Z" fill="#686B6E"/>
</g>
</svg>
