<svg width="24" height="24" viewBox="0 0 24 24" fill="none" xmlns="http://www.w3.org/2000/svg">
<mask id="mask0_0_1365" style="mask-type:alpha" maskUnits="userSpaceOnUse" x="0" y="0" width="24" height="24">
<rect width="24" height="24" fill="#004FEC"/>
</mask>
<g mask="url(#mask0_0_1365)">
<path d="M15.8559 4H8.14391C6.43991 4 5.05591 5.392 5.05591 7.088V18.36C5.05591 19.8 6.08791 20.408 7.35191 19.712L11.2559 17.544C11.6719 17.312 12.3439 17.312 12.7519 17.544L16.6559 19.712C17.9199 20.416 18.9519 19.808 18.9519 18.36V7.088C18.9439 5.392 17.5599 4 15.8559 4ZM14.4079 10.2C13.6319 10.48 12.8159 10.624 11.9999 10.624C11.1839 10.624 10.3679 10.48 9.59191 10.2C9.27991 10.088 9.11991 9.744 9.23191 9.432C9.35191 9.12 9.69591 8.96 10.0079 9.072C11.2959 9.536 12.7119 9.536 13.9999 9.072C14.3119 8.96 14.6559 9.12 14.7679 9.432C14.8799 9.744 14.7199 10.088 14.4079 10.2Z" fill="#1A1D1F"/>
</g>
</svg>
