<svg width="24" height="24" viewBox="0 0 24 24" fill="none" xmlns="http://www.w3.org/2000/svg">
<mask id="mask0_0_555" style="mask-type:alpha" maskUnits="userSpaceOnUse" x="0" y="0" width="24" height="24">
<rect width="24" height="24" fill="#004FEC"/>
</mask>
<g mask="url(#mask0_0_555)">
<path fill-rule="evenodd" clip-rule="evenodd" d="M6.672 4H8.192C9.936 4 10.856 4.92 10.848 6.664V8.184C10.848 9.928 9.928 10.848 8.184 10.848H6.664C4.92 10.848 4 9.928 4 8.184V6.664C4 4.92 4.92 4 6.672 4ZM15.816 4H17.336C19.08 4 20 4.92 20 6.664V8.184C20 9.928 19.08 10.848 17.336 10.848H15.816C14.072 10.848 13.152 9.928 13.152 8.184V6.664C13.152 4.92 14.072 4 15.816 4ZM17.336 13.144H15.816C14.072 13.144 13.152 14.064 13.152 15.808V17.328C13.152 19.072 14.072 19.992 15.816 19.992H17.336C19.08 19.992 20 19.072 20 17.328V15.808C20 14.064 19.08 13.144 17.336 13.144ZM6.672 13.144H8.192C9.936 13.144 10.856 14.064 10.848 15.816V17.336C10.848 19.08 9.928 20 8.184 20H6.664C4.92 20 4 19.08 4 17.328V15.808C4 14.064 4.92 13.144 6.672 13.144Z" fill="white"/>
</g>
</svg>
