<svg width="24" height="24" viewBox="0 0 24 24" fill="none" xmlns="http://www.w3.org/2000/svg">
<mask id="mask0_0_884" style="mask-type:alpha" maskUnits="userSpaceOnUse" x="0" y="0" width="24" height="24">
<rect width="23.1504" height="24" fill="#004FEC"/>
</mask>
<g mask="url(#mask0_0_884)">
<path d="M18.7133 9.72004C16.9307 6.81604 14.3224 5.14404 11.5752 5.14404C10.2016 5.14404 8.86661 5.56004 7.64735 6.33604C6.4281 7.12004 5.33231 8.26404 4.43716 9.72004C3.66548 10.976 3.66548 13.016 4.43716 14.272C6.21974 17.184 8.82803 18.848 11.5752 18.848C12.9488 18.848 14.2838 18.432 15.5031 17.656C16.7223 16.872 17.8181 15.728 18.7133 14.272C19.4849 13.024 19.4849 10.976 18.7133 9.72004ZM11.5752 15.232C9.84665 15.232 8.45762 13.784 8.45762 12C8.45762 10.216 9.84665 8.76804 11.5752 8.76804C13.3038 8.76804 14.6928 10.216 14.6928 12C14.6928 13.784 13.3038 15.232 11.5752 15.232Z" fill="#686B6E"/>
<path d="M11.5753 9.71191C10.3637 9.71191 9.37598 10.7359 9.37598 11.9999C9.37598 13.2559 10.3637 14.2799 11.5753 14.2799C12.7868 14.2799 13.7823 13.2559 13.7823 11.9999C13.7823 10.7439 12.7868 9.71191 11.5753 9.71191Z" fill="#686B6E"/>
</g>
</svg>
