<svg width="24" height="24" viewBox="0 0 24 24" fill="none" xmlns="http://www.w3.org/2000/svg">
<mask id="mask0_0_909" style="mask-type:alpha" maskUnits="userSpaceOnUse" x="0" y="0" width="24" height="24">
<rect width="24" height="24" fill="#004FEC"/>
</mask>
<g mask="url(#mask0_0_909)">
<path d="M19.644 10.994L18.556 9.73C18.348 9.49 18.18 9.042 18.18 8.722V7.362C18.18 6.514 17.484 5.818 16.636 5.818H15.276C14.964 5.818 14.508 5.65 14.268 5.442L13.004 4.354C12.452 3.882 11.548 3.882 10.988 4.354L9.732 5.45C9.492 5.65 9.036 5.818 8.724 5.818H7.34C6.492 5.818 5.796 6.514 5.796 7.362V8.73C5.796 9.042 5.628 9.49 5.428 9.73L4.348 11.002C3.884 11.554 3.884 12.45 4.348 13.002L5.428 14.274C5.628 14.514 5.796 14.962 5.796 15.274V16.642C5.796 17.49 6.492 18.186 7.34 18.186H8.724C9.036 18.186 9.492 18.354 9.732 18.562L10.996 19.65C11.548 20.122 12.452 20.122 13.012 19.65L14.276 18.562C14.516 18.354 14.964 18.186 15.284 18.186H16.644C17.492 18.186 18.188 17.49 18.188 16.642V15.282C18.188 14.97 18.356 14.514 18.564 14.274L19.652 13.01C20.116 12.458 20.116 11.546 19.644 10.994ZM15.324 10.49L11.46 14.354C11.348 14.466 11.196 14.53 11.036 14.53C10.876 14.53 10.724 14.466 10.612 14.354L8.676 12.418C8.444 12.186 8.444 11.802 8.676 11.57C8.908 11.338 9.292 11.338 9.524 11.57L11.036 13.082L14.476 9.642C14.708 9.41 15.092 9.41 15.324 9.642C15.556 9.874 15.556 10.258 15.324 10.49Z" fill="white"/>
</g>
</svg>
