<svg width="34" height="34" viewBox="0 0 34 34" fill="none" xmlns="http://www.w3.org/2000/svg">
<mask id="mask0_0_178" style="mask-type:alpha" maskUnits="userSpaceOnUse" x="0" y="0" width="34" height="34">
<rect width="34" height="34" fill="#004FEC"/>
</mask>
<g mask="url(#mask0_0_178)">
<path d="M25.5453 10.8118L22.066 7.3325C21.0007 6.26717 19.5613 5.6665 18.054 5.6665H12.4667C9.06667 5.6665 6.8 7.93317 6.8 11.3332V22.6665C6.8 26.0665 9.06667 28.3332 12.4667 28.3332H21.5333C24.9333 28.3332 27.2 26.0665 27.2 22.6665V14.8125C27.2 13.3052 26.5993 11.8658 25.5453 10.8118ZM16.4333 23.8665C16.4333 24.1426 16.2095 24.3665 15.9333 24.3665H14.7333C12.8633 24.3665 11.3333 22.8365 11.3333 20.9665V20.3332C11.3333 20.057 11.5572 19.8332 11.8333 19.8332H16.15C16.3087 19.8332 16.4333 19.9578 16.4333 20.1165V23.8665ZM16.4333 18.4165C16.4333 18.5752 16.3087 18.6998 16.15 18.6998H11.8333C11.5572 18.6998 11.3333 18.476 11.3333 18.1998V17.5665C11.3333 15.6965 12.8633 14.1665 14.7333 14.1665H15.9333C16.2095 14.1665 16.4333 14.3904 16.4333 14.6665V18.4165ZM22.6667 20.9665C22.6667 22.8365 21.1367 24.3665 19.2667 24.3665H18.0667C17.7905 24.3665 17.5667 24.1426 17.5667 23.8665V20.1165C17.5667 19.9578 17.6913 19.8332 17.85 19.8332H22.1667C22.4428 19.8332 22.6667 20.057 22.6667 20.3332V20.9665ZM22.6667 18.1998C22.6667 18.476 22.4428 18.6998 22.1667 18.6998H17.85C17.6913 18.6998 17.5667 18.5752 17.5667 18.4165V14.6665C17.5667 14.3904 17.7905 14.1665 18.0667 14.1665H19.2667C21.1367 14.1665 22.6667 15.6965 22.6667 17.5665V18.1998Z" fill="white"/>
</g>
</svg>
