<svg width="16" height="16" viewBox="0 0 16 16" fill="none" xmlns="http://www.w3.org/2000/svg">
<mask id="mask0_0_289" style="mask-type:alpha" maskUnits="userSpaceOnUse" x="0" y="0" width="16" height="16">
<rect width="16" height="16" fill="#004FEC"/>
</mask>
<g mask="url(#mask0_0_289)">
<path d="M13.096 7.32966L12.3707 6.48699C12.232 6.32699 12.12 6.02833 12.12 5.81499V4.90833C12.12 4.34299 11.656 3.87899 11.0907 3.87899H10.184C9.976 3.87899 9.672 3.76699 9.512 3.62833L8.66934 2.90299C8.30134 2.58833 7.69867 2.58833 7.32534 2.90299L6.488 3.63366C6.328 3.76699 6.024 3.87899 5.816 3.87899H4.89334C4.328 3.87899 3.864 4.34299 3.864 4.90833V5.82033C3.864 6.02833 3.752 6.32699 3.61867 6.48699L2.89867 7.33499C2.58934 7.70299 2.58934 8.30032 2.89867 8.66832L3.61867 9.51632C3.752 9.67632 3.864 9.97499 3.864 10.183V11.095C3.864 11.6603 4.328 12.1243 4.89334 12.1243H5.816C6.024 12.1243 6.328 12.2363 6.488 12.375L7.33067 13.1003C7.69867 13.415 8.30134 13.415 8.67467 13.1003L9.51734 12.375C9.67734 12.2363 9.97601 12.1243 10.1893 12.1243H11.096C11.6613 12.1243 12.1253 11.6603 12.1253 11.095V10.1883C12.1253 9.98033 12.2373 9.67632 12.376 9.51632L13.1013 8.67366C13.4107 8.30566 13.4107 7.69766 13.096 7.32966ZM10.216 6.99366L7.64 9.56966C7.56534 9.64432 7.464 9.68699 7.35734 9.68699C7.25067 9.68699 7.14934 9.64432 7.07467 9.56966L5.784 8.27899C5.62934 8.12433 5.62934 7.86833 5.784 7.71366C5.93867 7.55899 6.19467 7.55899 6.34934 7.71366L7.35734 8.72166L9.65067 6.42833C9.80534 6.27366 10.0613 6.27366 10.216 6.42833C10.3707 6.58299 10.3707 6.83899 10.216 6.99366Z" fill="#EF233C"/>
</g>
</svg>
