<svg width="34" height="34" viewBox="0 0 34 34" fill="none" xmlns="http://www.w3.org/2000/svg">
<mask id="mask0_0_707" style="mask-type:alpha" maskUnits="userSpaceOnUse" x="0" y="0" width="34" height="34">
<rect width="34" height="34" fill="#004FEC"/>
</mask>
<g mask="url(#mask0_0_707)">
<path fill-rule="evenodd" clip-rule="evenodd" d="M12.7501 9.91641C12.2854 9.91641 11.9001 9.53107 11.9001 9.06641V5.66641C11.9001 5.20174 12.2854 4.81641 12.7501 4.81641C13.2147 4.81641 13.6001 5.20174 13.6001 5.66641V9.06641C13.6001 9.53107 13.2147 9.91641 12.7501 9.91641ZM21.2501 9.91641C20.7854 9.91641 20.4001 9.53107 20.4001 9.06641V5.66641C20.4001 5.20174 20.7854 4.81641 21.2501 4.81641C21.7147 4.81641 22.1001 5.20174 22.1001 5.66641V9.06641C22.1001 9.53107 21.7147 9.91641 21.2501 9.91641ZM18.0202 18.4617C18.0202 19.0171 17.5895 19.3684 17.0002 19.3684C16.4108 19.3684 15.9802 19.0171 15.9802 18.4617C15.9802 17.8951 16.4108 17.5664 17.0002 17.5664C17.5895 17.5664 18.0202 17.8951 18.0202 18.4617ZM17.0002 22.6664C17.7137 22.6664 18.2922 22.1945 18.2922 21.6124C18.2922 21.0303 17.7137 20.5584 17.0002 20.5584C16.2866 20.5584 15.7082 21.0303 15.7082 21.6124C15.7082 22.1945 16.2866 22.6664 17.0002 22.6664ZM23.7547 9.41774C23.7547 8.47707 24.8314 7.94441 25.5794 8.49974C26.9054 9.50841 27.7667 11.0837 27.7667 12.8857V22.8137C27.7667 25.8624 25.2961 28.3331 22.2474 28.3331H11.7527C8.70406 28.3331 6.2334 25.8624 6.2334 22.8137V12.8857C6.2334 12.7271 6.24473 12.5684 6.25607 12.4097C6.2674 12.2737 6.27873 12.1491 6.3014 12.0244C6.32407 11.8544 6.35807 11.6844 6.4034 11.5257L6.4034 11.5257C6.44873 11.3557 6.49407 11.1857 6.56207 11.0157C6.56841 10.9999 6.57386 10.9849 6.57918 10.9703C6.59285 10.9328 6.60558 10.8979 6.63006 10.8571C6.6754 10.7097 6.7434 10.5737 6.8114 10.4377L6.8114 10.4377C6.8114 10.4151 6.82273 10.4037 6.8454 10.3811C6.92473 10.2224 7.0154 10.0524 7.1174 9.90507C7.12873 9.88241 7.14007 9.87107 7.1514 9.85974C7.24207 9.71241 7.34406 9.56507 7.46873 9.42907C7.70673 9.12307 7.99006 8.83974 8.3074 8.59041C8.3244 8.57341 8.34423 8.55924 8.36406 8.54507C8.3839 8.53091 8.40373 8.51674 8.42073 8.49974C8.46606 8.46574 8.50007 8.44307 8.5454 8.42041C8.55106 8.41474 8.55673 8.41191 8.5624 8.40907C8.56807 8.40624 8.57373 8.40341 8.5794 8.39774C9.31607 8.02374 10.2454 8.54507 10.2454 9.41774V9.53107C10.2454 10.4491 10.6987 11.3104 11.4127 11.8091C11.5147 11.8771 11.6281 11.9337 11.7414 11.9904L11.7414 11.9904C11.8547 12.0471 11.9681 12.0924 12.0814 12.1264C12.2174 12.1717 12.3647 12.2057 12.5234 12.2171C12.7047 12.2397 12.8861 12.2397 13.0674 12.2171C13.2261 12.2057 13.3734 12.1717 13.5094 12.1264C13.6341 12.0924 13.7474 12.0471 13.8494 11.9904L13.8494 11.9904C13.9627 11.9337 14.0761 11.8771 14.1781 11.8091C14.8807 11.3671 15.3454 10.5737 15.3454 9.67841V8.49974C15.3454 7.87641 15.8554 7.36641 16.4787 7.36641H17.5214C18.1447 7.36641 18.6547 7.87641 18.6547 8.49974V9.67841C18.6547 11.1744 19.9467 12.3757 21.4767 12.2171C22.8027 12.0811 23.7547 10.8571 23.7547 9.53107V9.41774ZM14.1667 21.8051C14.1667 23.2104 15.2434 24.0831 17.0001 24.0831C18.7454 24.0831 19.8334 23.2104 19.8334 21.8051C19.8334 21.0344 19.4367 20.3657 18.7341 19.9691C19.2441 19.6177 19.5614 19.0964 19.5614 18.3824C19.5614 16.9091 18.3941 16.1497 17.0001 16.1497C15.6061 16.1497 14.4274 16.9091 14.4274 18.3824C14.4274 19.0964 14.7561 19.6177 15.2547 19.9691C14.5634 20.3657 14.1667 21.0344 14.1667 21.8051Z" fill="white"/>
</g>
</svg>
