<svg width="27" height="27" viewBox="0 0 27 27" fill="none" xmlns="http://www.w3.org/2000/svg">
<mask id="mask0_0_1025" style="mask-type:alpha" maskUnits="userSpaceOnUse" x="0" y="0" width="27" height="27">
<rect width="27" height="27" fill="#004FEC"/>
</mask>
<g mask="url(#mask0_0_1025)">
<path d="M20.736 8.83792L15.552 5.21092C14.139 4.22092 11.97 4.27492 10.611 5.32792L6.10197 8.84692C5.20197 9.54892 4.49097 10.9889 4.49097 12.1229V18.3329C4.49097 20.6279 6.35397 22.4999 8.64897 22.4999H18.351C20.646 22.4999 22.509 20.6369 22.509 18.3419V12.2399C22.509 11.0249 21.726 9.53092 20.736 8.83792ZM14.175 18.8999C14.175 19.2689 13.869 19.5749 13.5 19.5749C13.131 19.5749 12.825 19.2689 12.825 18.8999V16.1999C12.825 15.8309 13.131 15.5249 13.5 15.5249C13.869 15.5249 14.175 15.8309 14.175 16.1999V18.8999Z" fill="#686B6E"/>
</g>
</svg>
