<svg width="50" height="50" viewBox="0 0 50 50" fill="none" xmlns="http://www.w3.org/2000/svg">
<rect width="50" height="50" rx="7" fill="white"/>
<rect x="20.3497" y="16.6133" width="9.30075" height="16.7723" fill="#FF5F00"/>
<path d="M20.9404 24.9998C20.9374 21.7269 22.4346 18.6344 25.0002 16.6137C20.6422 13.1762 14.3835 13.6765 10.6227 17.763C6.86193 21.8495 6.86193 28.1501 10.6227 32.2367C14.3835 36.3232 20.6422 36.8235 25.0002 33.386C22.4346 31.3653 20.9375 28.2728 20.9404 24.9998Z" fill="#EB001B"/>
<path d="M42.198 24.9998C42.1981 29.0835 39.8747 32.8089 36.2145 34.5937C32.5542 36.3786 28.1998 35.9096 25.0004 33.3859C27.5637 31.3633 29.0602 28.272 29.0602 24.9998C29.0602 21.7275 27.5637 18.6363 25.0004 16.6136C28.1998 14.0899 32.5542 13.6209 36.2145 15.4058C39.8747 17.1906 42.1981 20.916 42.198 24.9998Z" fill="#F79E1B"/>
</svg>
