<svg width="101" height="121" viewBox="0 0 101 121" fill="none" xmlns="http://www.w3.org/2000/svg">
<path fill-rule="evenodd" clip-rule="evenodd" d="M89.1817 107.126C117.094 77.6253 85.7556 78.9315 69.712 50.7126C53.6684 22.4937 59.9414 -11.085 31.0825 4.93599C2.22351 20.957 -8.16535 56.8205 7.87831 85.0394C23.922 113.259 61.2688 136.626 89.1817 107.126Z" fill="#E9EAEA"/>
<path d="M100 50.5996V76.7096C100 84.7246 93.49 91.1996 85.475 91.1996H44.525C36.51 91.1996 30 84.7246 30 76.7096V50.5996H100Z" fill="#FBC8CE"/>
<path d="M100 45.49V50.6H30V45.49C30 37.475 36.51 31 44.525 31H85.475C93.49 31 100 37.475 100 45.49Z" fill="#EF233C"/>
<path d="M51 79.4746H44C42.565 79.4746 41.375 78.2846 41.375 76.8496C41.375 75.4146 42.565 74.2246 44 74.2246H51C52.435 74.2246 53.625 75.4146 53.625 76.8496C53.625 78.2846 52.435 79.4746 51 79.4746Z" fill="#EF233C"/>
<path d="M73.75 79.4746H59.75C58.315 79.4746 57.125 78.2846 57.125 76.8496C57.125 75.4146 58.315 74.2246 59.75 74.2246H73.75C75.185 74.2246 76.375 75.4146 76.375 76.8496C76.375 78.2846 75.185 79.4746 73.75 79.4746Z" fill="#EF233C"/>
</svg>
