<svg width="28" height="28" viewBox="0 0 28 28" fill="none" xmlns="http://www.w3.org/2000/svg">
<mask id="mask0_6773_16937" style="mask-type:alpha" maskUnits="userSpaceOnUse" x="0" y="0" width="28" height="28">
<rect width="28" height="28" fill="#004FEC"/>
</mask>
<g mask="url(#mask0_6773_16937)">
<path d="M14 4.66675C19.1547 4.66675 23.3333 8.87096 23.3333 14.0571C23.3333 18.7441 19.9203 22.629 15.4583 23.3334V16.7715H17.6331L18.0469 14.0571H15.4583V12.2964C15.4583 11.5538 15.82 10.8292 16.9794 10.8292H18.1562V8.51827C18.1562 8.51827 18.0325 8.49702 17.8289 8.46899C17.5092 8.42496 16.9927 8.36419 16.4499 8.34274C16.323 8.33773 16.1946 8.33486 16.067 8.33486C13.9351 8.33486 12.5417 9.63484 12.5417 11.9883V14.0571H10.1719V16.7715H12.5417V23.3334C8.07971 22.629 4.66666 18.7441 4.66666 14.0571C4.66666 8.87096 8.84534 4.66675 14 4.66675Z" fill="#1877F2"/>
</g>
</svg>
