<svg width="25" height="25" viewBox="0 0 25 25" fill="none" xmlns="http://www.w3.org/2000/svg">
<mask id="mask0_0_1136" style="mask-type:alpha" maskUnits="userSpaceOnUse" x="0" y="0" width="25" height="25">
<rect width="25" height="25" fill="#004FEC"/>
</mask>
<g mask="url(#mask0_0_1136)">
<path d="M14.4583 5C15.2666 5.00832 15.925 5.42453 16.3083 6.1737C16.4072 6.37139 16.5453 6.66013 16.6898 6.96473L16.8643 7.33304L16.95 7.51387L17.0333 7.697C17.0666 7.75527 17.125 7.79689 17.2 7.79689C19.2 7.79689 20.8333 9.42841 20.8333 11.4262V16.3707C20.8333 18.3685 19.2 20 17.2 20H7.79996C5.79163 20 4.16663 18.3685 4.16663 16.3707V11.4262C4.16663 9.42841 5.79163 7.79689 7.79996 7.79689C7.86663 7.79689 7.93329 7.7636 7.95829 7.697L8.00829 7.59711C8.24163 7.10599 8.52496 6.50666 8.69163 6.1737C9.07496 5.42453 9.72496 5.00832 10.5333 5H14.4583ZM12.5 10.3357C11.625 10.3357 10.8 10.677 10.175 11.3013C9.55829 11.9256 9.21663 12.7414 9.22496 13.6071C9.22496 14.4811 9.56663 15.2969 10.1833 15.9212C10.8083 16.5372 11.625 16.8785 12.5 16.8785C13.4 16.8785 14.2166 16.5122 14.8083 15.9212C15.4 15.3302 15.7666 14.5144 15.775 13.6071C15.775 12.7414 15.4333 11.9173 14.8166 11.293C14.2 10.677 13.375 10.3357 12.5 10.3357ZM12.5 11.5844C13.0416 11.5844 13.55 11.7925 13.9333 12.1754C14.3166 12.5583 14.525 13.066 14.525 13.6071C14.5166 14.7225 13.6166 15.6299 12.5 15.6299C11.9583 15.6299 11.45 15.4218 11.0666 15.0388C10.6833 14.6559 10.475 14.1482 10.475 13.6071V13.5988C10.4666 13.0744 10.675 12.5666 11.0583 12.1837C11.45 11.7925 11.9583 11.5844 12.5 11.5844ZM17.175 10.136C16.7583 10.136 16.425 10.4772 16.425 10.8935C16.425 11.3097 16.7583 11.6426 17.175 11.6426C17.5916 11.6426 17.9333 11.3097 17.9333 10.8935C17.9333 10.4772 17.5916 10.136 17.175 10.136Z" fill="white"/>
</g>
</svg>
