<svg width="101" height="121" viewBox="0 0 101 121" fill="none" xmlns="http://www.w3.org/2000/svg">
<path fill-rule="evenodd" clip-rule="evenodd" d="M89.1817 107.126C117.094 77.6253 85.7556 78.9315 69.712 50.7126C53.6684 22.4937 59.9414 -11.085 31.0825 4.93599C2.22351 20.957 -8.16535 56.8205 7.87831 85.0394C23.922 113.259 61.2688 136.626 89.1817 107.126Z" fill="#E9EAEA"/>
<path d="M86.6666 69.667C79.2999 69.667 73.3333 75.6337 73.3333 83.0003C73.3333 85.5003 74.0333 87.867 75.2666 89.867C77.5666 93.7337 81.7999 96.3337 86.6666 96.3337C91.5333 96.3337 95.7665 93.7337 98.0665 89.867C99.2999 87.867 99.9999 85.5003 99.9999 83.0003C99.9999 75.6337 94.0333 69.667 86.6666 69.667ZM93.5666 81.567L86.4666 88.1337C85.9999 88.567 85.3666 88.8003 84.7666 88.8003C84.1332 88.8003 83.5 88.567 83 88.067L79.6998 84.767C78.7332 83.8003 78.7332 82.2003 79.6998 81.2337C80.6665 80.267 82.2665 80.267 83.2332 81.2337L84.8333 82.8337L90.1665 77.9003C91.1665 76.967 92.7665 77.0337 93.6999 78.0337C94.6332 79.0337 94.5666 80.6003 93.5666 81.567Z" fill="#EF233C"/>
<path d="M96.6667 44.8V49.6667H30V44.8C30 37.1667 36.2001 31 43.8334 31H82.8333C90.4666 31 96.6667 37.1667 96.6667 44.8Z" fill="#EF233C"/>
<path d="M30 49.667V74.5337C30 82.167 36.1667 88.3337 43.8 88.3337H64.6667C66.6001 88.3337 68.2666 86.7003 68.1 84.767C67.6333 79.667 69.2667 74.1337 73.8 69.7337C75.6667 67.9003 77.9667 66.5003 80.4667 65.7003C84.6334 64.367 88.6666 64.5337 92.2333 65.7337C94.3999 66.467 96.6667 64.9003 96.6667 62.6003V49.667H30ZM50 77.167H43.3333C41.9667 77.167 40.8333 76.0337 40.8333 74.667C40.8333 73.3003 41.9667 72.167 43.3333 72.167H50C51.3667 72.167 52.5 73.3003 52.5 74.667C52.5 76.0337 51.3667 77.167 50 77.167Z" fill="#FBC8CE"/>
<path d="M52.4999 74.667C52.4999 76.0337 51.3666 77.167 49.9999 77.167H43.3333C41.9666 77.167 40.8333 76.0337 40.8333 74.667C40.8333 73.3003 41.9666 72.167 43.3333 72.167H49.9999C51.3666 72.167 52.4999 73.3003 52.4999 74.667Z" fill="#EF233C"/>
</svg>
