<svg width="101" height="121" viewBox="0 0 101 121" fill="none" xmlns="http://www.w3.org/2000/svg">
<path fill-rule="evenodd" clip-rule="evenodd" d="M89.1817 107.126C117.094 77.6253 85.7556 78.9315 69.712 50.7126C53.6684 22.4937 59.9414 -11.085 31.0825 4.93599C2.22351 20.957 -8.16535 56.8205 7.87831 85.0394C23.922 113.259 61.2688 136.626 89.1817 107.126Z" fill="#E9EAEA"/>
<path d="M86.6029 69.9521C79.201 69.9521 73.2058 75.9474 73.2058 83.3493C73.2058 90.7512 79.201 96.7464 86.6029 96.7464C94.0048 96.7464 100 90.7512 100 83.3493C100 75.9474 94.0048 69.9521 86.6029 69.9521ZM91.9617 88.8756C91.4593 89.378 90.8228 89.6124 90.1865 89.6124C89.5501 89.6124 88.9139 89.378 88.4115 88.8756L86.6362 87.1005L84.7942 88.9426C84.2918 89.4449 83.6555 89.6794 83.0192 89.6794C82.3828 89.6794 81.7463 89.4449 81.244 88.9426C80.2727 87.9713 80.2727 86.3636 81.244 85.3923L83.086 83.5502L81.311 81.7751C80.3397 80.8038 80.3397 79.1962 81.311 78.2249C82.2823 77.2536 83.8899 77.2536 84.8612 78.2249L86.6362 80L88.3109 78.3253C89.2822 77.3541 90.8898 77.3541 91.8611 78.3253C92.8324 79.2966 92.8324 80.9043 91.8611 81.8756L90.1865 83.5502L91.9617 85.3253C92.933 86.2966 92.933 87.9043 91.9617 88.8756Z" fill="#EF233C"/>
<path d="M96.9856 44.866V49.756H30V44.866C30 37.1962 36.2297 31 43.8996 31H83.086C90.7558 31 96.9856 37.1962 96.9856 44.866Z" fill="#EF233C"/>
<path d="M30 49.7559V74.7415C30 82.4113 36.1962 88.6075 43.8661 88.6075H64.8326C66.7752 88.6075 68.4497 86.9663 68.2822 85.0238C67.8133 79.8994 69.4545 74.3396 74.0096 69.9185C75.8852 68.0764 78.1962 66.6697 80.7081 65.8659C84.8947 64.5262 88.9472 64.6936 92.531 65.8994C94.708 66.6362 96.9856 65.0621 96.9856 62.7511V49.7559H30ZM50.0957 77.3874H43.3971C42.0239 77.3874 40.8852 76.2487 40.8852 74.8754C40.8852 73.5022 42.0239 72.3635 43.3971 72.3635H50.0957C51.4689 72.3635 52.6076 73.5022 52.6076 74.8754C52.6076 76.2487 51.4689 77.3874 50.0957 77.3874Z" fill="#FBC8CE"/>
<path d="M52.6077 74.8752C52.6077 76.2484 51.469 77.3872 50.0958 77.3872H43.3972C42.024 77.3872 40.8853 76.2484 40.8853 74.8752C40.8853 73.502 42.024 72.3633 43.3972 72.3633H50.0958C51.469 72.3633 52.6077 73.502 52.6077 74.8752Z" fill="#EF233C"/>
</svg>
