<svg width="24" height="24" viewBox="0 0 24 24" fill="none" xmlns="http://www.w3.org/2000/svg">
<mask id="mask0_0_251" style="mask-type:alpha" maskUnits="userSpaceOnUse" x="0" y="0" width="24" height="24">
<rect width="24" height="24" fill="#0560FD"/>
</mask>
<g mask="url(#mask0_0_251)">
<path fill-rule="evenodd" clip-rule="evenodd" d="M9.05343 8.00019H5.00011C4.44696 8.00019 4.00007 7.55329 4.00007 7.00014C4.00007 6.44699 4.44696 6.0001 5.00011 6.0001H9.0003V5.00005C9.0003 4.4469 9.4472 4 10.0004 4C10.5535 4 11.0004 4.4469 11.0004 5.00005V6.0001H12.0004C12.5536 6.0001 13.0005 6.44699 13.0005 7.00014C13.0005 7.55329 12.5536 8.00019 12.0004 8.00019H11.0535C11.0535 8.00332 11.0535 8.00644 11.0535 8.00957C11.0535 9.89716 10.566 11.6691 9.69721 13.0879C9.63161 13.1947 9.56365 13.2997 9.49336 13.4026C10.2544 13.6893 11.1589 13.8932 12.1438 13.9685L14.088 9.59402C14.2474 9.2315 14.6068 9.00024 15.0006 9.00024C15.3943 9.00024 15.7537 9.2315 15.9131 9.59402L19.9133 18.5944C20.1383 19.0976 19.9102 19.6883 19.407 19.9133C18.9039 20.1383 18.3132 19.9101 18.0882 19.407L17.4629 18.0007H12.5382L11.9129 19.407C11.691 19.9101 11.0972 20.1383 10.5941 19.9133C10.0909 19.6914 9.86281 19.0976 10.0878 18.5944L11.2894 15.8909C10.3 15.7612 9.3771 15.5204 8.55341 15.1849C8.37745 15.1124 8.20566 15.0357 8.03853 14.9546C7.42758 15.4179 6.73279 15.7529 5.96578 15.9099C5.66577 15.9693 5.36263 16.0006 5.05637 16.0006H4.98761C4.43446 15.9943 3.99382 15.5412 4.00007 14.988C4.00632 14.4349 4.46259 13.9942 5.01261 14.0036H5.05324C5.22512 14.0036 5.39701 13.9848 5.56889 13.9505C5.79688 13.9047 6.02228 13.8285 6.24243 13.7229C6.04499 13.5284 5.86558 13.321 5.7064 13.1004C5.272 12.4973 5.00011 11.7722 5.00011 11.0035V10.9972C5.00011 10.4472 5.45013 10.0003 6.00329 9.99716C6.55331 10.0003 7.00021 10.4472 7.00021 11.0003V11.0035C7.00021 11.3066 7.09709 11.6035 7.33147 11.9348C7.44073 12.0877 7.58192 12.2441 7.75311 12.3981C7.835 12.2847 7.91434 12.1657 7.99088 12.041C8.64404 10.9816 9.05656 9.54714 9.05343 8.00957C9.05343 8.00644 9.05343 8.00332 9.05343 8.00019ZM13.4275 16.0006H16.5736L15.0006 12.4629L13.4275 16.0006Z" fill="#686B6E"/>
</g>
</svg>
