<svg width="101" height="121" viewBox="0 0 101 121" fill="none" xmlns="http://www.w3.org/2000/svg">
<path fill-rule="evenodd" clip-rule="evenodd" d="M89.1817 107.126C117.094 77.6253 85.7556 78.9315 69.712 50.7126C53.6684 22.4937 59.9414 -11.085 31.0825 4.93599C2.22351 20.957 -8.16535 56.8205 7.87831 85.0394C23.922 113.259 61.2688 136.626 89.1817 107.126Z" fill="#E9EAEA"/>
<path d="M83.7248 87.0003C83.1398 87.0003 82.5548 86.7728 82.1323 86.3503L76.0873 80.3053C75.2098 79.4278 75.2098 77.9978 76.0873 77.0878C76.9648 76.2103 78.3948 76.2103 79.3048 77.0878L85.3498 83.1328C86.2273 84.0103 86.2273 85.4403 85.3498 86.3503C84.8948 86.7728 84.3098 87.0003 83.7248 87.0003Z" fill="#EF233C"/>
<path d="M51.875 83.75C68.9268 83.75 82.75 69.9268 82.75 52.875C82.75 35.8232 68.9268 22 51.875 22C34.8232 22 21 35.8232 21 52.875C21 69.9268 34.8232 83.75 51.875 83.75Z" fill="#EF233C"/>
<path d="M40.7617 60H43.5645V57.4902H45.4004V55.127H43.5645V45.9082H39.4043C36.5137 50.166 34.9805 52.6367 33.75 54.9805V57.4902H40.7617V60ZM36.3379 55.1367C37.4805 52.9297 38.7109 51.0059 40.7617 47.998H40.8203V55.2148H36.3379V55.1367ZM52.4707 60.3125C56.0156 60.3125 58.1641 57.4707 58.1641 52.9199C58.1641 48.3691 55.9961 45.5859 52.4707 45.5859C48.9453 45.5859 46.7676 48.3789 46.7676 52.9297C46.7676 57.4902 48.9258 60.3125 52.4707 60.3125ZM52.4707 57.9492C50.791 57.9492 49.7656 56.1328 49.7656 52.9297C49.7656 49.7559 50.8105 47.9492 52.4707 47.9492C54.1406 47.9492 55.166 49.7461 55.166 52.9297C55.166 56.1426 54.1504 57.9492 52.4707 57.9492ZM66.6992 60H69.502V57.4902H71.3379V55.127H69.502V45.9082H65.3418C62.4512 50.166 60.918 52.6367 59.6875 54.9805V57.4902H66.6992V60ZM62.2754 55.1367C63.418 52.9297 64.6484 51.0059 66.6992 47.998H66.7578V55.2148H62.2754V55.1367Z" fill="white"/>
</svg>
