<svg width="34" height="34" viewBox="0 0 34 34" fill="none" xmlns="http://www.w3.org/2000/svg">
<mask id="mask0_0_1051" style="mask-type:alpha" maskUnits="userSpaceOnUse" x="0" y="0" width="34" height="34">
<rect width="34" height="34" fill="#0560FD"/>
</mask>
<g mask="url(#mask0_0_1051)">
<path d="M22.3833 7.43441V5.66641C22.3833 5.20174 21.998 4.81641 21.5333 4.81641C21.0686 4.81641 20.6833 5.20174 20.6833 5.66641V7.36641H13.3166V5.66641C13.3166 5.20174 12.9313 4.81641 12.4666 4.81641C12.002 4.81641 11.6166 5.20174 11.6166 5.66641V7.43441C8.55665 7.71774 7.07198 9.54241 6.84532 12.2511C6.82265 12.5797 7.09465 12.8517 7.41198 12.8517H26.588C26.9166 12.8517 27.1886 12.5684 27.1546 12.2511C26.928 9.54241 25.4433 7.71774 22.3833 7.43441Z" fill="white"/>
<path d="M26.0667 14.5518H7.93338C7.31005 14.5518 6.80005 15.0618 6.80005 15.6851V22.6664C6.80005 26.0664 8.50005 28.3331 12.4667 28.3331H21.5334C25.5001 28.3331 27.2001 26.0664 27.2001 22.6664V15.6851C27.2001 15.0618 26.6901 14.5518 26.0667 14.5518ZM13.838 24.0378C13.7814 24.0831 13.7247 24.1398 13.668 24.1738C13.6 24.2191 13.532 24.2531 13.464 24.2758C13.396 24.3098 13.328 24.3324 13.26 24.3438C13.1807 24.3551 13.1127 24.3664 13.0334 24.3664C12.886 24.3664 12.7387 24.3324 12.6027 24.2758C12.4554 24.2191 12.342 24.1398 12.2287 24.0378C12.0247 23.8224 11.9 23.5278 11.9 23.2331C11.9 22.9384 12.0247 22.6438 12.2287 22.4284C12.342 22.3264 12.4554 22.2471 12.6027 22.1904C12.8067 22.0998 13.0334 22.0771 13.26 22.1224C13.328 22.1338 13.396 22.1564 13.464 22.1904C13.532 22.2131 13.6 22.2471 13.668 22.2924C13.7247 22.3378 13.7814 22.3831 13.838 22.4284C14.042 22.6438 14.1667 22.9384 14.1667 23.2331C14.1667 23.5278 14.042 23.8224 13.838 24.0378ZM13.838 20.0711C13.6227 20.2751 13.328 20.3998 13.0334 20.3998C12.7387 20.3998 12.444 20.2751 12.2287 20.0711C12.0247 19.8558 11.9 19.5611 11.9 19.2664C11.9 18.9718 12.0247 18.6771 12.2287 18.4618C12.546 18.1444 13.0447 18.0424 13.464 18.2238C13.6114 18.2804 13.736 18.3598 13.838 18.4618C14.042 18.6771 14.1667 18.9718 14.1667 19.2664C14.1667 19.5611 14.042 19.8558 13.838 20.0711ZM17.8047 24.0378C17.5894 24.2418 17.2947 24.3664 17 24.3664C16.7054 24.3664 16.4107 24.2418 16.1954 24.0378C15.9914 23.8224 15.8667 23.5278 15.8667 23.2331C15.8667 22.9384 15.9914 22.6438 16.1954 22.4284C16.6147 22.0091 17.3854 22.0091 17.8047 22.4284C18.0087 22.6438 18.1334 22.9384 18.1334 23.2331C18.1334 23.5278 18.0087 23.8224 17.8047 24.0378ZM17.8047 20.0711C17.748 20.1164 17.6914 20.1618 17.6347 20.2071C17.5667 20.2524 17.4987 20.2864 17.4307 20.3091C17.3627 20.3431 17.2947 20.3658 17.2267 20.3771C17.1474 20.3884 17.0794 20.3998 17 20.3998C16.7054 20.3998 16.4107 20.2751 16.1954 20.0711C15.9914 19.8558 15.8667 19.5611 15.8667 19.2664C15.8667 18.9718 15.9914 18.6771 16.1954 18.4618C16.2974 18.3598 16.422 18.2804 16.5694 18.2238C16.9887 18.0424 17.4874 18.1444 17.8047 18.4618C18.0087 18.6771 18.1334 18.9718 18.1334 19.2664C18.1334 19.5611 18.0087 19.8558 17.8047 20.0711ZM21.7714 24.0378C21.556 24.2418 21.2614 24.3664 20.9667 24.3664C20.6721 24.3664 20.3774 24.2418 20.1621 24.0378C19.958 23.8224 19.8334 23.5278 19.8334 23.2331C19.8334 22.9384 19.958 22.6438 20.1621 22.4284C20.5814 22.0091 21.352 22.0091 21.7714 22.4284C21.9754 22.6438 22.1 22.9384 22.1 23.2331C22.1 23.5278 21.9754 23.8224 21.7714 24.0378ZM21.7714 20.0711C21.7147 20.1164 21.658 20.1618 21.6014 20.2071C21.5334 20.2524 21.4654 20.2864 21.3974 20.3091C21.3294 20.3431 21.2614 20.3658 21.1934 20.3771C21.114 20.3884 21.0347 20.3998 20.9667 20.3998C20.6721 20.3998 20.3774 20.2751 20.1621 20.0711C19.958 19.8558 19.8334 19.5611 19.8334 19.2664C19.8334 18.9718 19.958 18.6771 20.1621 18.4618C20.2754 18.3598 20.3887 18.2804 20.536 18.2238C20.7401 18.1331 20.9667 18.1104 21.1934 18.1558C21.2614 18.1671 21.3294 18.1898 21.3974 18.2238C21.4654 18.2464 21.5334 18.2804 21.6014 18.3258C21.658 18.3711 21.7147 18.4164 21.7714 18.4618C21.9754 18.6771 22.1 18.9718 22.1 19.2664C22.1 19.5611 21.9754 19.8558 21.7714 20.0711Z" fill="white"/>
</g>
</svg>
