<svg width="36" height="36" viewBox="0 0 36 36" fill="none" xmlns="http://www.w3.org/2000/svg">
<mask id="mask0_0_1095" style="mask-type:alpha" maskUnits="userSpaceOnUse" x="0" y="0" width="36" height="36">
<rect width="36" height="36" fill="#004FEC"/>
</mask>
<g mask="url(#mask0_0_1095)">
<path d="M21.8009 27.4084C21.5926 27.4084 21.3843 27.3316 21.2198 27.1672L14.0716 20.019C12.9095 18.8568 12.9095 16.9492 14.0716 15.7871L21.2198 8.63885C21.5378 8.32091 22.064 8.32091 22.382 8.63885C22.6999 8.95679 22.6999 9.48304 22.382 9.80098L15.2337 16.9492C14.7075 17.4754 14.7075 18.3306 15.2337 18.8568L22.382 26.0051C22.6999 26.323 22.6999 26.8493 22.382 27.1672C22.2175 27.3207 22.0092 27.4084 21.8009 27.4084Z" fill="#1A1D1F"/>
</g>
</svg>
