<svg width="101" height="121" viewBox="0 0 101 121" fill="none" xmlns="http://www.w3.org/2000/svg">
<path fill-rule="evenodd" clip-rule="evenodd" d="M89.1817 107.126C117.094 77.6253 85.7556 78.9315 69.712 50.7126C53.6684 22.4937 59.9414 -11.085 31.0825 4.93599C2.22351 20.957 -8.16535 56.8205 7.87831 85.0394C23.922 113.259 61.2688 136.626 89.1817 107.126Z" fill="#E9EAEA"/>
<path d="M83.725 87.0003C83.14 87.0003 82.555 86.7728 82.1325 86.3503L76.0875 80.3053C75.21 79.4278 75.21 77.9978 76.0875 77.0878C76.965 76.2103 78.395 76.2103 79.305 77.0878L85.35 83.1328C86.2275 84.0103 86.2275 85.4403 85.35 86.3503C84.895 86.7728 84.31 87.0003 83.725 87.0003Z" fill="#EF233C"/>
<path d="M51.875 83.75C68.9268 83.75 82.75 69.9268 82.75 52.875C82.75 35.8232 68.9268 22 51.875 22C34.8232 22 21 35.8232 21 52.875C21 69.9268 34.8232 83.75 51.875 83.75Z" fill="#EF233C"/>
<path d="M61.625 50.4375H42.125C40.7925 50.4375 39.6875 49.3325 39.6875 48C39.6875 46.6675 40.7925 45.5625 42.125 45.5625H61.625C62.9575 45.5625 64.0625 46.6675 64.0625 48C64.0625 49.3325 62.9575 50.4375 61.625 50.4375Z" fill="white"/>
<path d="M51.875 60.1875H42.125C40.7925 60.1875 39.6875 59.0825 39.6875 57.75C39.6875 56.4175 40.7925 55.3125 42.125 55.3125H51.875C53.2075 55.3125 54.3125 56.4175 54.3125 57.75C54.3125 59.0825 53.2075 60.1875 51.875 60.1875Z" fill="white"/>
</svg>
