<svg width="27" height="27" viewBox="0 0 27 27" fill="none" xmlns="http://www.w3.org/2000/svg">
<mask id="mask0_0_1129" style="mask-type:alpha" maskUnits="userSpaceOnUse" x="0" y="0" width="27" height="27">
<rect width="27" height="27" fill="#004FEC"/>
</mask>
<g mask="url(#mask0_0_1129)">
<path d="M13.5 4.5C11.142 4.5 9.22501 6.417 9.22501 8.775C9.22501 11.088 11.034 12.96 13.392 13.041C13.464 13.032 13.536 13.032 13.59 13.041C13.608 13.041 13.617 13.041 13.635 13.041C13.644 13.041 13.644 13.041 13.653 13.041C15.957 12.96 17.766 11.088 17.775 8.775C17.775 6.417 15.858 4.5 13.5 4.5Z" fill="#EF233C"/>
<path d="M18.072 15.4352C15.561 13.7612 11.466 13.7612 8.937 15.4352C7.794 16.2002 7.164 17.2352 7.164 18.3422C7.164 19.4492 7.794 20.4752 8.928 21.2312C10.188 22.0772 11.844 22.5002 13.5 22.5002C15.156 22.5002 16.812 22.0772 18.072 21.2312C19.206 20.4662 19.836 19.4402 19.836 18.3242C19.827 17.2172 19.206 16.1912 18.072 15.4352Z" fill="#EF233C"/>
</g>
</svg>
