<svg width="34" height="34" viewBox="0 0 34 34" fill="none" xmlns="http://www.w3.org/2000/svg">
<mask id="mask0_0_164" style="mask-type:alpha" maskUnits="userSpaceOnUse" x="0" y="0" width="34" height="34">
<rect width="34" height="34" fill="#0560FD"/>
</mask>
<g mask="url(#mask0_0_164)">
<path d="M17.0001 5.66699C14.7586 5.66699 12.5674 6.33168 10.7036 7.577C8.83987 8.82233 7.38724 10.5924 6.52945 12.6632C5.67166 14.7341 5.44722 17.0129 5.88452 19.2114C6.32182 21.4098 7.40121 23.4292 8.98621 25.0142C10.5712 26.5992 12.5906 27.6786 14.7891 28.1159C16.9875 28.5532 19.2663 28.3288 21.3372 27.471C23.4081 26.6132 25.1781 25.1605 26.4234 23.2968C27.6687 21.433 28.3334 19.2418 28.3334 17.0003C28.3334 15.512 28.0403 14.0383 27.4707 12.6632C26.9012 11.2882 26.0664 10.0388 25.014 8.98645C23.9616 7.93405 22.7122 7.09924 21.3372 6.52969C19.9621 5.96014 18.4884 5.66699 17.0001 5.66699ZM17.0001 7.93366C17.683 7.93812 18.3633 8.01794 19.0288 8.17166C18.8317 8.61637 18.5281 9.00564 18.1448 9.30499C17.8954 9.49766 17.6234 9.65633 17.3514 9.82633C16.4903 10.2503 15.7643 10.9056 15.2548 11.719C14.6965 12.8824 14.4542 14.1723 14.5521 15.459C14.5521 17.0003 14.5521 17.907 13.4754 18.7117C11.9228 19.9243 9.55409 19.2443 8.08075 18.6323C7.98443 18.0936 7.93514 17.5476 7.93342 17.0003C7.93342 14.5957 8.88865 12.2896 10.589 10.5892C12.2893 8.88889 14.5955 7.93366 17.0001 7.93366ZM22.5421 24.163C22.346 23.7104 22.1069 23.2778 21.8281 22.871C21.7034 22.6897 21.5788 22.5083 21.4654 22.3157C21.0234 21.545 21.1821 21.1823 21.8961 20.049L22.0094 19.8563C22.4693 19.013 22.6962 18.0624 22.6668 17.1023C22.6656 16.7222 22.6998 16.3428 22.7688 15.969C22.9501 15.1417 24.7068 14.915 25.7948 14.8357C26.2345 16.5453 26.1616 18.3465 25.5853 20.0151C25.009 21.6837 23.9546 23.1459 22.5534 24.2197L22.5421 24.163Z" fill="white"/>
</g>
</svg>
