<svg width="28" height="28" viewBox="0 0 28 28" fill="none" xmlns="http://www.w3.org/2000/svg">
<mask id="mask0_6773_16941" style="mask-type:alpha" maskUnits="userSpaceOnUse" x="0" y="0" width="28" height="28">
<rect width="28" height="28" fill="#004FEC"/>
</mask>
<g mask="url(#mask0_6773_16941)">
<path fill-rule="evenodd" clip-rule="evenodd" d="M17.6868 4.66675C17.8627 5.85724 17.3765 7.02352 16.735 7.84868C16.0487 8.73377 14.8658 9.41833 13.7197 9.38261C13.5105 8.24283 14.0462 7.06847 14.698 6.27904C15.413 5.40778 16.6385 4.73935 17.6868 4.66675ZM21.1298 21.4235C21.7206 20.5211 21.9413 20.0659 22.4 19.0471C19.064 17.7829 18.5295 13.0566 21.831 11.2427C20.824 9.98419 19.4089 9.25468 18.0731 9.25468C17.1106 9.25468 16.4512 9.50498 15.8516 9.73253C15.352 9.92215 14.8941 10.096 14.3371 10.096C13.7351 10.096 13.2021 9.90552 12.644 9.7061C12.0306 9.48696 11.387 9.25699 10.5884 9.25699C9.08936 9.25699 7.49378 10.1697 6.48218 11.7302C5.06018 13.9279 5.30274 18.0595 7.60874 21.5791C8.43296 22.8387 9.53423 24.2539 10.9746 24.2666C11.5723 24.2725 11.97 24.0948 12.4004 23.9024C12.893 23.6822 13.4284 23.4429 14.3554 23.438C15.288 23.4324 15.8149 23.6746 16.301 23.8981C16.7203 24.0908 17.1092 24.2696 17.7018 24.2631C19.1433 24.2516 20.3055 22.6831 21.1298 21.4235Z" fill="#1A1D1F"/>
</g>
</svg>
