<svg width="20" height="20" viewBox="0 0 20 20" fill="none" xmlns="http://www.w3.org/2000/svg">
<mask id="mask0_0_1208" style="mask-type:alpha" maskUnits="userSpaceOnUse" x="0" y="0" width="20" height="20">
<rect width="20" height="20" fill="#004FEC"/>
</mask>
<g mask="url(#mask0_0_1208)">
<path d="M7.78863 15.227C7.67291 15.227 7.55718 15.1844 7.46582 15.093C7.28918 14.9164 7.28918 14.624 7.46582 14.4474L11.437 10.4761C11.7294 10.1838 11.7294 9.70869 11.437 9.41633L7.46582 5.4451C7.28918 5.26846 7.28918 4.9761 7.46582 4.79947C7.64245 4.62283 7.93481 4.62283 8.11145 4.79947L12.0827 8.7707C12.3933 9.08133 12.5699 9.5016 12.5699 9.94623C12.5699 10.3909 12.3994 10.8111 12.0827 11.1218L8.11145 15.093C8.02009 15.1783 7.90436 15.227 7.78863 15.227Z" fill="#E9EAEA"/>
</g>
</svg>
