<svg width="101" height="121" viewBox="0 0 101 121" fill="none" xmlns="http://www.w3.org/2000/svg">
<path fill-rule="evenodd" clip-rule="evenodd" d="M89.1817 107.126C117.094 77.6253 85.7556 78.9315 69.712 50.7126C53.6684 22.4937 59.9414 -11.085 31.0825 4.93599C2.22351 20.957 -8.16535 56.8205 7.87831 85.0394C23.922 113.259 61.2688 136.626 89.1817 107.126Z" fill="#E9EAEA"/>
<path d="M74.3005 23H42.6667C35.677 23 30 28.7098 30 35.6667V81.9033C30 87.81 34.2332 90.304 39.418 87.4491L55.4318 78.5561C57.1382 77.6045 59.8946 77.6045 61.5682 78.5561L77.582 87.4491C82.7668 90.3368 87 87.8429 87 81.9033V35.6667C86.9672 28.7098 81.2902 23 74.3005 23Z" fill="#EF233C"/>
<path d="M58.4836 50.1718C55.1364 50.1718 51.7893 49.5811 48.6062 48.4326C47.3264 47.9732 46.6701 46.5622 47.1295 45.2824C47.6218 44.0026 49.0328 43.3463 50.3126 43.8057C55.5958 45.709 61.4041 45.709 66.6874 43.8057C67.9672 43.3463 69.3782 44.0026 69.8376 45.2824C70.2971 46.5622 69.6408 47.9732 68.361 48.4326C65.1779 49.5811 61.8307 50.1718 58.4836 50.1718Z" fill="white"/>
</svg>
