<svg width="20" height="20" viewBox="0 0 20 20" fill="none" xmlns="http://www.w3.org/2000/svg">
<mask id="mask0_0_936" style="mask-type:alpha" maskUnits="userSpaceOnUse" x="0" y="0" width="20" height="20">
<rect width="20" height="20" fill="#004FEC"/>
</mask>
<g mask="url(#mask0_0_936)">
<path d="M7.7886 15.227C7.67288 15.227 7.55715 15.1844 7.46579 15.093C7.28915 14.9164 7.28915 14.624 7.46579 14.4474L11.437 10.4761C11.7294 10.1838 11.7294 9.70869 11.437 9.41633L7.46579 5.4451C7.28915 5.26846 7.28915 4.9761 7.46579 4.79947C7.64242 4.62283 7.93478 4.62283 8.11142 4.79947L12.0826 8.7707C12.3933 9.08133 12.5699 9.5016 12.5699 9.94623C12.5699 10.3909 12.3994 10.8111 12.0826 11.1218L8.11142 15.093C8.02006 15.1783 7.90433 15.227 7.7886 15.227Z" fill="#686B6E"/>
</g>
</svg>
