<svg width="20" height="20" viewBox="0 0 20 20" fill="none" xmlns="http://www.w3.org/2000/svg">
<mask id="mask0_0_1063" style="mask-type:alpha" maskUnits="userSpaceOnUse" x="0" y="0" width="20" height="20">
<rect width="20" height="20" fill="#004FEC"/>
</mask>
<g mask="url(#mask0_0_1063)">
<path d="M8.57412 14.0292C8.48271 14.0289 8.39234 14.0099 8.30862 13.9732C8.2249 13.9365 8.14962 13.8829 8.08746 13.8159L4.84746 10.3692C4.72634 10.2402 4.66146 10.0683 4.66709 9.89136C4.67271 9.71445 4.74838 9.54702 4.87746 9.4259C5.00653 9.30479 5.17843 9.23991 5.35534 9.24553C5.53225 9.25116 5.69967 9.32683 5.82079 9.4559L8.56746 12.3826L14.1741 6.24924C14.231 6.17839 14.3018 6.11991 14.3821 6.07741C14.4624 6.03491 14.5506 6.00928 14.6412 6.00209C14.7318 5.9949 14.8229 6.00631 14.9089 6.0356C14.9949 6.0649 15.074 6.11148 15.1414 6.17247C15.2087 6.23346 15.2629 6.30757 15.3006 6.39027C15.3383 6.47296 15.3586 6.56248 15.3605 6.65333C15.3623 6.74418 15.3455 6.83444 15.3112 6.91858C15.2768 7.00271 15.2257 7.07894 15.1608 7.14257L9.06746 13.8092C9.00588 13.8775 8.93087 13.9322 8.84712 13.9701C8.76337 14.008 8.67269 14.0281 8.58079 14.0292H8.57412Z" fill="white"/>
</g>
</svg>
