<svg width="18" height="18" viewBox="0 0 18 18" fill="none" xmlns="http://www.w3.org/2000/svg">
<mask id="mask0_0_1257" style="mask-type:alpha" maskUnits="userSpaceOnUse" x="0" y="0" width="18" height="18">
<rect width="18" height="18" fill="#004FEC"/>
</mask>
<g mask="url(#mask0_0_1257)">
<path d="M11.664 3.59961C10.578 3.59961 9.606 4.13354 9 4.95264C8.394 4.13354 7.422 3.59961 6.336 3.59961C4.494 3.59961 3 5.11646 3 6.99129C3 7.71332 3.114 8.38073 3.312 8.99961C4.26 12.0333 7.182 13.8475 8.628 14.345C8.832 14.4178 9.168 14.4178 9.372 14.345C10.818 13.8475 13.74 12.0333 14.688 8.99961C14.886 8.38073 15 7.71332 15 6.99129C15 5.11646 13.506 3.59961 11.664 3.59961Z" fill="#EF233C"/>
</g>
</svg>
