<svg width="24" height="24" viewBox="0 0 24 24" fill="none" xmlns="http://www.w3.org/2000/svg">
<mask id="mask0_0_342" style="mask-type:alpha" maskUnits="userSpaceOnUse" x="0" y="0" width="24" height="24">
<rect width="24" height="24" fill="#004FEC"/>
</mask>
<g mask="url(#mask0_0_342)">
<path d="M7.488 8.62402H4V11.4H7.488V8.62402Z" fill="white"/>
<path d="M7.488 7.43152V4.10352C5.664 4.43952 4.472 5.61552 4.12 7.42352H7.464C7.472 7.42352 7.48 7.43152 7.488 7.43152Z" fill="white"/>
<path d="M7.488 15.4476V12.5996H4V15.4236H7.392C7.424 15.4236 7.456 15.4396 7.488 15.4476Z" fill="white"/>
<path d="M19.88 7.42356C19.536 5.67156 18.416 4.51955 16.688 4.14355V7.42356H19.88Z" fill="white"/>
<path d="M15.488 11.4V4.008C15.448 4 15.4 4 15.352 4H8.688V11.4H15.488Z" fill="white"/>
<path d="M20 12.5996H16.688V15.4236H20V12.5996Z" fill="white"/>
<path d="M16.688 19.856C18.4 19.48 19.52 18.344 19.872 16.624H16.688V19.856Z" fill="white"/>
<path d="M7.392 16.6244H4.128C4.496 18.4004 5.68 19.5604 7.488 19.8964V16.6084C7.456 16.6164 7.424 16.6244 7.392 16.6244Z" fill="white"/>
<path d="M20 8.62402H16.688V11.4H20V8.62402Z" fill="white"/>
<path d="M8.688 12.5996V19.9996H15.352C15.4 19.9996 15.448 19.9996 15.488 19.9916V12.5996H8.688Z" fill="white"/>
</g>
</svg>
