<svg width="24" height="24" viewBox="0 0 24 24" fill="none" xmlns="http://www.w3.org/2000/svg">
<mask id="mask0_0_1170" style="mask-type:alpha" maskUnits="userSpaceOnUse" x="0" y="0" width="24" height="24">
<rect width="24" height="24" fill="#004FEC"/>
</mask>
<g mask="url(#mask0_0_1170)">
<path d="M15.352 4H8.648C6.08 4 4 6.08 4 8.648V10.6C4 11.04 4.36 11.4 4.8 11.4H19.2C19.64 11.4 20 11.04 20 10.6V8.648C20 6.08 17.92 4 15.352 4ZM7.8 9C7.8 9.328 7.528 9.6 7.2 9.6C6.872 9.6 6.6 9.328 6.6 9V7.4C6.6 7.072 6.872 6.8 7.2 6.8C7.528 6.8 7.8 7.072 7.8 7.4V9ZM11 9C11 9.328 10.728 9.6 10.4 9.6C10.072 9.6 9.8 9.328 9.8 9V7.4C9.8 7.072 10.072 6.8 10.4 6.8C10.728 6.8 11 7.072 11 7.4V9ZM16.8 8.8H13.6C13.272 8.8 13 8.528 13 8.2C13 7.872 13.272 7.6 13.6 7.6H16.8C17.128 7.6 17.4 7.872 17.4 8.2C17.4 8.528 17.128 8.8 16.8 8.8Z" fill="#686B6E"/>
<path d="M4 15.3516C4 17.9196 6.08 19.9996 8.648 19.9996H15.344C17.92 19.9996 20 17.9196 20 15.3516V13.3996C20 12.9596 19.64 12.5996 19.2 12.5996H4.8C4.36 12.5996 4 12.9596 4 13.3996V15.3516ZM13.6 15.3996H16.8C17.128 15.3996 17.4 15.6716 17.4 15.9996C17.4 16.3276 17.128 16.5996 16.8 16.5996H13.6C13.272 16.5996 13 16.3276 13 15.9996C13 15.6716 13.272 15.3996 13.6 15.3996ZM9.8 15.1996C9.8 14.8716 10.072 14.5996 10.4 14.5996C10.728 14.5996 11 14.8716 11 15.1996V16.7996C11 17.1276 10.728 17.3996 10.4 17.3996C10.072 17.3996 9.8 17.1276 9.8 16.7996V15.1996ZM6.6 15.1996C6.6 14.8716 6.872 14.5996 7.2 14.5996C7.528 14.5996 7.8 14.8716 7.8 15.1996V16.7996C7.8 17.1276 7.528 17.3996 7.2 17.3996C6.872 17.3996 6.6 17.1276 6.6 16.7996V15.1996Z" fill="#686B6E"/>
</g>
</svg>
