<svg width="12" height="12" viewBox="0 0 12 12" fill="none" xmlns="http://www.w3.org/2000/svg">
<path d="M5.72098 0.534924C6.17885 -0.32619 7.47113 -0.0983243 7.60686 0.867456L7.93912 3.23164C7.99982 3.66355 8.33174 4.00725 8.76126 4.08299L11.1124 4.49756C12.0729 4.66691 12.2555 5.96636 11.3789 6.39389L9.23313 7.44046C8.84111 7.63166 8.6168 8.05354 8.6775 8.48545L9.00976 10.8496C9.1455 11.8154 7.96608 12.3906 7.2886 11.6891L5.63016 9.97173C5.32718 9.65799 4.85664 9.57502 4.46463 9.76622L2.31883 10.8128C1.44226 11.2403 0.53072 10.2964 0.988582 9.43528L2.10941 7.32731C2.31417 6.94221 2.24767 6.46906 1.94469 6.15532L0.286253 4.43795C-0.391227 3.7364 0.224823 2.57778 1.18528 2.74714L3.53642 3.16171C3.96595 3.23744 4.3954 3.02799 4.60016 2.64289L5.72098 0.534924Z" fill="#14AA37"/>
</svg>
