<svg width="24" height="24" viewBox="0 0 24 24" fill="none" xmlns="http://www.w3.org/2000/svg">
<mask id="mask0_0_1147" style="mask-type:alpha" maskUnits="userSpaceOnUse" x="0" y="0" width="24" height="24">
<rect width="24" height="24" fill="#004FEC"/>
</mask>
<g mask="url(#mask0_0_1147)">
<path d="M11.936 15.0846C11.4243 15.0846 10.9126 14.8873 10.5251 14.4998L5.75897 9.73366C5.54698 9.52167 5.54698 9.17079 5.75897 8.9588C5.97096 8.74681 6.32184 8.74681 6.53384 8.9588L11.3 13.725C11.6509 14.0758 12.2211 14.0758 12.572 13.725L17.3381 8.9588C17.5501 8.74681 17.901 8.74681 18.113 8.9588C18.325 9.17079 18.325 9.52167 18.113 9.73366L13.3468 14.4998C12.9594 14.8873 12.4477 15.0846 11.936 15.0846Z" fill="#686B6E"/>
</g>
</svg>
