<svg width="24" height="24" viewBox="0 0 24 24" fill="none" xmlns="http://www.w3.org/2000/svg">
<mask id="mask0_0_760" style="mask-type:alpha" maskUnits="userSpaceOnUse" x="0" y="0" width="24" height="24">
<rect width="24" height="24" fill="#004FEC"/>
</mask>
<g mask="url(#mask0_0_760)">
<path d="M16 5.2002H8C5.6 5.2002 4 6.4002 4 9.2002V14.8002C4 17.6002 5.6 18.8002 8 18.8002H16C18.4 18.8002 20 17.6002 20 14.8002V9.2002C20 6.4002 18.4 5.2002 16 5.2002ZM16.376 10.0722L13.872 12.0722C13.344 12.4962 12.672 12.7042 12 12.7042C11.328 12.7042 10.648 12.4962 10.128 12.0722L7.624 10.0722C7.368 9.8642 7.328 9.4802 7.528 9.2242C7.736 8.9682 8.112 8.9202 8.368 9.1282L10.872 11.1282C11.48 11.6162 12.512 11.6162 13.12 11.1282L15.624 9.1282C15.88 8.9202 16.264 8.9602 16.464 9.2242C16.672 9.4802 16.632 9.8642 16.376 10.0722Z" fill="#686B6E"/>
</g>
</svg>
