<svg width="24" height="24" viewBox="0 0 24 24" fill="none" xmlns="http://www.w3.org/2000/svg">
<mask id="mask0_6875_3110" style="mask-type:alpha" maskUnits="userSpaceOnUse" x="0" y="0" width="24" height="24">
<rect width="24" height="24" fill="#004FEC"/>
</mask>
<g mask="url(#mask0_6875_3110)">
<path d="M15.352 4H8.648C5.736 4 4 5.736 4 8.648V15.344C4 18.264 5.736 20 8.648 20H15.344C18.256 20 19.992 18.264 19.992 15.352V8.648C20 5.736 18.264 4 15.352 4ZM14.232 15.68C14.112 15.832 13.936 15.912 13.76 15.912C13.632 15.912 13.504 15.872 13.392 15.784C12.544 15.128 11.448 15.128 10.6 15.784C10.336 15.984 9.96 15.936 9.76 15.68C9.56 15.416 9.608 15.04 9.864 14.84C11.136 13.856 12.848 13.856 14.12 14.84C14.392 15.04 14.44 15.416 14.232 15.68ZM16 13.208C15.88 13.36 15.704 13.44 15.528 13.44C15.4 13.44 15.272 13.4 15.16 13.312C13.24 11.832 10.768 11.832 8.848 13.312C8.584 13.52 8.208 13.472 8 13.208C7.792 12.944 7.848 12.568 8.104 12.368C10.464 10.544 13.52 10.544 15.88 12.368C16.152 12.568 16.2 12.944 16 13.208ZM17.272 10.736C17.152 10.888 16.976 10.968 16.8 10.968C16.672 10.968 16.544 10.928 16.432 10.84C13.736 8.76 10.256 8.76 7.568 10.84C7.304 11.04 6.928 10.992 6.728 10.736C6.528 10.472 6.576 10.096 6.832 9.896C9.968 7.472 14.024 7.472 17.168 9.896C17.432 10.096 17.48 10.472 17.272 10.736Z" fill="#686B6E"/>
</g>
</svg>
